<svg width="14px" height="12px" viewBox="0 0 14 12" version="1.1" xmlns="http://www.w3.org/2000/svg" xmlns:xlink="http://www.w3.org/1999/xlink">
    <!-- Generator: Sketch 50.2 (55047) - http://www.bohemiancoding.com/sketch -->
    <desc>Created with Sketch.</desc>
    <defs>
        <path d="M10.3279278,4.15 C9.54684444,4.15 8.86221389,4.66313889 8.65677778,5.42147222 L0.5,5.42147222 L0.5,6.36036111 L8.65681389,6.36036111 C8.86221389,7.08258333 9.54684444,7.63168889 10.3279278,7.63168889 C11.1090472,7.63168889 11.7937139,7.08258333 11.9991139,6.36036111 L13.5,6.36036111 L13.5,5.42147222 L11.99915,5.42147222 C11.7937139,4.66313889 11.1090472,4.15 10.3279278,4.15 Z M10.3279278,6.69496667 C9.881775,6.69496667 9.51875,6.33197778 9.51875,5.88586111 C9.51875,5.43970833 9.881775,5.07668333 10.3279278,5.07668333 C10.7740444,5.07668333 11.1369972,5.43970833 11.1369972,5.88586111 C11.1369972,6.33197778 10.7740806,6.69496667 10.3279278,6.69496667 Z M5.59646944,1.52147222 L13.5,1.52147222 L13.5,2.42425 L5.59639722,2.42425 C5.39099722,3.18258333 4.70633056,3.69561389 3.92521111,3.69561389 C3.14416389,3.69561389 2.45953333,3.18258333 2.25413333,2.42425 L0.5,2.42425 L0.5,1.52147222 L2.25416944,1.52147222 C2.45953333,0.763138889 3.14416389,0.25 3.92524722,0.25 C4.70636667,0.25 5.39106944,0.763138889 5.59646944,1.52147222 Z M5.44003611,8.013925 C6.22115556,8.013925 6.90578611,8.56313889 7.11118611,9.28536111 L13.5,9.28536111 L13.5,10.22425 L7.11115,10.22425 C6.90575,10.9825833 6.22108333,11.49565 5.44,11.49565 C4.65895278,11.49565 3.97432222,10.9825833 3.76892222,10.22425 L0.5,10.22425 L0.5,9.28536111 L3.76892222,9.28536111 C3.97435833,8.56313889 4.65898889,8.013925 5.44003611,8.013925 Z M3.92524722,2.78200278 C4.37136389,2.78200278 4.73435278,2.41901389 4.73435278,1.97286111 C4.73435278,1.52674444 4.37136389,1.16375556 3.92524722,1.16375556 C3.47909444,1.16375556 3.11610556,1.52674444 3.11610556,1.97286111 C3.11610556,2.41901389 3.47909444,2.78200278 3.92524722,2.78200278 Z M5.44003611,10.5735528 C5.88615278,10.5735528 6.24910556,10.2105639 6.24910556,9.76444722 C6.24910556,9.31829444 5.88615278,8.95530556 5.44003611,8.95530556 C4.99388333,8.95530556 4.63085833,9.31829444 4.63085833,9.76444722 C4.63085833,10.2105639 4.99388333,10.5735528 5.44003611,10.5735528 Z" id="path-1"></path>
    </defs>
    <g id="Symbols" stroke="none" stroke-width="1" fill="none" fill-rule="evenodd">
        <g id="icons/filter" transform="translate(-1.000000, -2.000000)">
            <g id="Group" transform="translate(1.000000, 2.000000)">
                <mask id="mask-2" fill="white">
                    <use xlink:href="#path-1"></use>
                </mask>
                <use id="Combined-Shape" fill="#000000" fill-rule="nonzero" xlink:href="#path-1"></use>
                <g id="colors/gray" mask="url(#mask-2)" fill="#9B9B9B">
                    <g transform="translate(-1.000000, -2.000000)" id="Rectangle-4">
                        <rect x="0" y="0" width="16" height="16"></rect>
                    </g>
                </g>
            </g>
        </g>
    </g>
</svg>